<?xml version="1.0" standalone="no"?>
<!DOCTYPE svg PUBLIC "-//W3C//DTD SVG 20010904//EN"
 "http://www.w3.org/TR/2001/REC-SVG-20010904/DTD/svg10.dtd">
<svg version="1.0" xmlns="http://www.w3.org/2000/svg"
 width="500.000000pt" height="499.000000pt" viewBox="0 0 500.000000 499.000000"
 preserveAspectRatio="xMidYMid meet">

<g transform="translate(0.000000,499.000000) scale(0.100000,-0.100000)"
fill="#000000" stroke="none">
<path d="M2313 4740 c-39 -4 -76 -10 -81 -14 -6 -3 -5 -29 3 -68 7 -35 21
-111 31 -170 l17 -108 36 5 c20 2 62 7 94 10 l57 6 0 175 0 174 -42 -1 c-24
-1 -75 -5 -115 -9z"/>
<path d="M1965 4674 c-49 -14 -93 -28 -97 -32 -6 -6 47 -166 100 -303 l10 -26
86 22 c47 12 88 24 91 27 5 4 -19 153 -46 286 -12 62 -12 62 -144 26z"/>
<path d="M1611 4544 c-52 -24 -97 -46 -99 -49 -5 -4 133 -250 161 -288 12 -17
17 -16 92 18 44 20 82 38 84 41 2 2 -22 75 -54 164 -43 119 -62 160 -74 160
-9 -1 -58 -21 -110 -46z"/>
<path d="M1316 4374 c-44 -29 -89 -62 -100 -73 -18 -18 -18 -22 -5 -38 9 -10
55 -65 104 -123 49 -58 92 -109 96 -114 7 -8 143 77 155 96 4 6 -147 279 -165
299 -3 4 -42 -17 -85 -47z"/>
<path d="M1015 4129 c-42 -41 -81 -82 -86 -91 -7 -14 15 -37 123 -128 l131
-111 68 67 67 67 -106 126 c-58 69 -109 130 -113 135 -4 5 -42 -24 -84 -65z"/>
<path d="M2693 4017 c-39 -28 -135 -127 -163 -167 -14 -20 -32 -30 -62 -35
-30 -5 -53 -19 -80 -46 -21 -22 -48 -39 -59 -39 -30 0 -22 11 54 75 39 33 67
65 67 76 0 11 -3 19 -7 19 -14 0 -73 -39 -150 -100 -42 -33 -79 -60 -83 -60
-4 0 -10 9 -13 20 -3 11 -9 20 -14 20 -4 0 -60 -51 -124 -113 -90 -86 -119
-120 -124 -146 -7 -35 7 -57 48 -75 13 -6 9 -10 -76 -63 -28 -18 -55 -33 -59
-33 -4 0 -8 18 -8 39 0 92 -47 88 -264 -20 -57 -28 -81 -49 -140 -119 -39 -47
-92 -114 -118 -150 -26 -36 -119 -140 -207 -232 -166 -174 -196 -219 -163
-245 9 -7 24 -13 34 -13 22 0 22 -6 3 -60 -8 -23 -19 -74 -23 -113 -8 -68 -8
-73 14 -89 29 -23 61 -76 66 -108 3 -23 1 -24 -42 -21 -35 2 -50 -2 -64 -18
-16 -17 -17 -26 -7 -70 23 -107 121 -264 221 -354 87 -78 308 -195 403 -212
31 -6 48 -19 88 -67 27 -33 65 -84 84 -113 36 -58 73 -77 100 -55 20 17 19 32
-6 74 -23 40 -22 79 3 84 28 5 161 -63 299 -155 29 -19 41 -22 62 -14 58 22
35 85 -43 118 -42 18 -205 114 -240 142 -33 27 -15 46 42 44 60 -3 110 21 106
49 -3 24 -3 24 -138 48 -36 6 -72 18 -80 26 -12 12 -9 14 24 14 28 0 39 5 43
18 3 14 29 23 114 41 110 24 189 60 249 115 14 13 46 37 72 55 26 17 62 50 80
73 70 89 187 187 201 167 2 -2 13 -51 26 -109 34 -153 57 -190 161 -256 25
-16 63 -44 84 -62 39 -34 40 -35 115 -29 56 4 95 14 146 37 93 42 147 61 295
106 69 20 139 44 155 52 17 8 73 59 125 113 53 54 109 103 125 110 49 19 168
49 197 49 30 0 58 32 58 66 0 27 -22 36 -55 24 -14 -5 -38 -7 -54 -4 -16 4
-32 1 -35 -5 -10 -16 -36 -14 -36 2 0 29 63 99 167 186 59 50 116 98 126 106
36 32 10 104 -33 90 -13 -4 -77 -59 -143 -122 -110 -104 -121 -113 -137 -98
-24 22 -60 20 -60 -4 0 -42 -105 -107 -161 -99 -31 4 -36 38 -9 63 11 10 20
23 20 30 0 15 -32 45 -48 45 -17 0 -92 -118 -92 -145 0 -34 -18 -76 -43 -104
-67 -71 -424 -189 -509 -168 -16 4 -34 24 -51 56 l-27 49 21 94 c14 62 21 133
22 215 l2 122 40 13 c53 18 65 42 125 251 28 98 65 208 82 245 51 112 106 275
122 362 39 205 6 256 -176 269 -103 7 -128 22 -175 102 -65 111 -110 144 -211
155 -39 5 -52 2 -79 -19z m-352 -580 c18 -12 40 -35 49 -50 14 -25 13 -28 -6
-47 l-20 -21 -42 31 c-48 34 -72 38 -94 13 -19 -22 -48 -78 -48 -93 0 -6 40
-10 109 -10 61 0 112 -3 114 -7 8 -12 -19 -153 -31 -165 -21 -21 -42 0 -42 42
l0 40 -79 0 c-67 0 -80 -3 -85 -17 -3 -10 -23 -126 -45 -258 -22 -132 -47
-278 -55 -325 -9 -47 -16 -88 -16 -92 0 -5 83 -8 185 -8 l184 0 6 38 c10 56
13 62 34 62 16 0 23 -16 43 -102 14 -57 23 -106 21 -110 -2 -5 -114 -8 -249
-8 -213 0 -244 -2 -244 -15 0 -9 -11 -37 -24 -64 -30 -58 -74 -83 -159 -89
-46 -4 -62 -1 -77 13 -25 22 -25 37 -2 58 14 13 30 15 70 10 61 -7 94 10 110
56 l11 31 -164 0 c-90 0 -166 4 -169 9 -7 10 1 24 176 329 70 123 128 226 128
228 0 3 -67 78 -150 167 -82 88 -150 165 -150 169 0 4 105 8 234 8 l234 0 7
33 c11 52 56 125 89 147 42 27 104 26 147 -3z"/>
<path d="M1937 3055 c59 -64 109 -111 111 -107 1 5 11 57 21 116 l18 106 -129
0 -129 0 108 -115z"/>
<path d="M1936 2616 c-42 -73 -76 -136 -76 -140 0 -3 24 -6 54 -6 l54 0 16 98
c10 53 21 116 25 140 5 23 7 42 5 42 -2 0 -37 -60 -78 -134z"/>
<path d="M757 3822 c-51 -72 -65 -99 -55 -105 156 -93 290 -167 296 -163 4 2
29 36 56 76 42 61 47 73 35 85 -43 41 -246 205 -254 205 -5 0 -41 -44 -78 -98z"/>
<path d="M582 3522 c-23 -48 -46 -99 -51 -113 l-9 -26 164 -60 164 -61 40 86
c22 47 39 86 38 87 -5 4 -261 151 -284 163 -20 10 -24 5 -62 -76z"/>
<path d="M442 3148 c-16 -62 -27 -116 -23 -120 3 -4 74 -18 156 -33 83 -14
157 -28 166 -31 13 -4 21 14 42 88 14 51 25 93 24 94 -11 6 -319 114 -326 114
-4 0 -22 -51 -39 -112z"/>
<path d="M387 2868 c-3 -13 -9 -67 -13 -120 l-7 -98 176 0 175 0 7 68 c13 131
31 112 -145 144 -190 33 -187 33 -193 6z"/>
<path d="M370 2483 c0 -40 18 -204 22 -208 3 -4 315 52 332 58 9 4 10 26 5 78
-4 41 -8 82 -8 92 -1 15 -16 17 -176 17 l-175 0 0 -37z"/>
<path d="M655 2179 c-49 -10 -91 -18 -92 -19 -1 0 0 -8 3 -17 5 -17 5 -16 -6
0 -13 20 -47 15 -67 -12 -12 -14 -12 -14 -8 0 4 9 0 16 -9 16 -8 0 -12 -6 -9
-14 3 -7 0 -13 -6 -13 -6 0 -11 5 -11 10 0 6 -7 10 -15 10 -17 0 -20 -25 -5
-35 6 -4 8 -10 5 -15 -3 -4 5 -40 17 -79 17 -51 27 -70 37 -66 11 5 12 3 1
-10 -7 -9 -10 -18 -6 -22 3 -3 6 -1 6 5 0 6 7 9 15 6 8 -3 20 -2 27 2 7 5 18
9 23 10 28 4 90 42 87 53 -1 7 2 10 8 6 6 -3 7 -11 4 -17 -4 -5 4 -4 17 3 13
7 29 14 34 15 6 0 13 2 18 4 10 4 25 7 38 9 5 0 8 5 5 10 -4 5 4 7 16 3 16 -4
20 -1 16 9 -3 8 -13 49 -23 92 -10 42 -21 76 -24 76 -3 -1 -46 -10 -96 -20z
m79 -20 c-3 -5 -10 -7 -15 -3 -5 3 -7 10 -3 15 3 5 10 7 15 3 5 -3 7 -10 3
-15z m-265 -62 c8 -10 7 -14 -2 -14 -8 0 -14 6 -14 14 0 7 1 13 2 13 2 0 8 -6
14 -13z m8 -54 c0 -16 -2 -22 -4 -15 -3 6 -8 10 -12 8 -4 -3 -8 1 -8 9 0 8 4
12 9 9 4 -3 8 0 8 5 0 6 2 11 4 11 2 0 3 -12 3 -27z"/>
<path d="M735 1856 c-49 -18 -91 -38 -91 -44 -3 -23 -4 -24 -18 -13 -11 9 -24
8 -56 -5 -25 -10 -37 -20 -30 -24 6 -4 11 -11 10 -16 0 -5 1 -18 4 -29 3 -11
6 -21 6 -23 0 -7 50 -100 63 -116 13 -17 16 -18 35 -4 12 8 19 18 15 22 -4 4
0 4 10 0 10 -3 17 -1 17 5 0 6 3 10 8 9 14 -3 61 25 56 34 -3 5 2 8 12 6 23
-4 49 42 31 55 -8 6 -8 7 3 4 8 -2 14 -11 12 -20 -2 -11 2 -15 13 -11 8 3 15
11 15 17 0 6 3 7 6 4 7 -7 64 23 64 34 0 4 -13 33 -30 64 -16 31 -30 63 -30
71 0 20 -22 16 -125 -20z m159 -116 c-6 -6 -10 -3 -10 10 0 13 4 16 10 10 7
-7 7 -13 0 -20z m-279 -32 c5 4 5 2 1 -5 -9 -16 -45 -12 -39 4 4 10 9 10 18 3
6 -5 16 -6 20 -2z m149 -37 c-3 -3 -13 -5 -24 -6 -15 -1 -17 2 -10 15 5 10 8
19 7 21 -1 2 5 -3 14 -11 9 -8 15 -17 13 -19z m29 24 c4 -8 1 -17 -5 -21 -7
-4 -8 -3 -4 4 4 7 2 12 -4 12 -6 0 -8 5 -5 10 8 14 12 13 18 -5z m-179 -24 c4
-5 -3 -7 -14 -4 -23 6 -26 13 -6 13 8 0 17 -4 20 -9z m136 -25 c0 -2 -7 -7
-16 -10 -8 -3 -12 -2 -9 4 6 10 25 14 25 6z m-94 -33 c-4 -24 -20 -27 -37 -6
-8 9 -9 14 -4 11 6 -4 17 -3 25 3 19 11 19 12 16 -8z"/>
<path d="M4216 1874 c-3 -9 -3 -21 1 -26 3 -6 1 -8 -5 -4 -17 10 -19 -28 -2
-42 13 -11 13 -11 -2 -6 -12 4 -23 -4 -38 -28 l-20 -33 33 -15 c17 -8 34 -18
37 -21 11 -14 150 -88 143 -76 -4 6 10 -3 30 -20 21 -18 41 -33 45 -33 13 0
33 40 26 52 -4 6 -3 8 3 5 10 -7 16 2 56 95 27 61 26 68 -9 68 -13 0 -26 5
-29 11 -4 6 -13 8 -20 5 -8 -3 -16 0 -18 7 -3 8 -10 5 -20 -8 -16 -20 -16 -19
-10 4 4 17 3 22 -5 17 -7 -4 -12 -2 -12 4 0 7 -7 10 -15 6 -8 -3 -15 -2 -15 2
0 7 -124 52 -142 52 -3 0 -9 -7 -12 -16z m54 -74 c0 -5 -4 -10 -10 -10 -5 0
-10 5 -10 10 0 6 5 10 10 10 6 0 10 -4 10 -10z m227 -95 c0 -8 -4 -12 -9 -9
-5 3 -6 10 -3 15 9 13 12 11 12 -6z m-177 -19 c0 -2 -11 -6 -25 -8 -13 -3 -22
-1 -19 3 5 9 44 13 44 5z m95 -85 c-6 -5 -25 10 -25 20 0 5 6 4 14 -3 8 -7 12
-15 11 -17z"/>
<path d="M975 1598 c-28 -15 -28 -15 -20 -28 5 -8 10 -8 20 0 9 8 14 7 18 -3
6 -17 -35 -17 -48 0 -8 10 -19 7 -53 -15 -23 -16 -39 -32 -35 -36 4 -4 0 -4
-10 0 -11 4 -19 0 -23 -9 -3 -9 -11 -14 -18 -11 -6 2 -27 -7 -46 -21 -19 -14
-40 -25 -48 -25 -11 0 -10 -7 5 -32 11 -19 27 -33 39 -33 10 0 17 -4 16 -9 -2
-5 2 -13 10 -18 10 -8 10 -9 -2 -5 -8 2 -14 10 -12 16 1 7 -2 10 -8 6 -6 -4 3
-25 22 -53 52 -77 51 -76 100 -36 24 20 45 40 48 44 3 4 15 12 28 19 12 7 20
16 17 22 -4 5 -1 8 7 7 7 -2 12 3 10 10 -1 8 1 11 6 8 5 -3 30 12 55 34 l47
38 -30 32 c-16 17 -29 33 -29 35 -1 3 -1 8 -1 13 -1 4 -11 19 -23 34 -18 22
-25 25 -42 16z m-131 -113 c-4 -8 -10 -15 -15 -15 -4 0 -6 7 -3 15 4 8 10 15
15 15 4 0 6 -7 3 -15z m36 1 c0 -3 -4 -8 -10 -11 -5 -3 -10 -1 -10 4 0 6 5 11
10 11 6 0 10 -2 10 -4z m197 -19 c-2 -6 -9 -12 -15 -13 -7 -1 -8 0 -2 3 8 3 7
9 -1 19 -10 12 -9 13 5 8 9 -4 15 -11 13 -17z m-57 -19 c0 -6 -6 -5 -15 2 -8
7 -15 14 -15 16 0 2 7 1 15 -2 8 -4 15 -11 15 -16z m-14 -35 c-7 -7 -26 7 -26
19 0 6 6 6 15 -2 9 -7 13 -15 11 -17z m-98 -43 c7 -11 9 -20 4 -20 -4 0 -13 9
-20 20 -7 11 -9 20 -4 20 4 0 13 -9 20 -20z m37 10 c13 -6 15 -9 5 -9 -8 0
-22 4 -30 9 -18 12 -2 12 25 0z m-55 -70 c0 -5 -5 -10 -11 -10 -5 0 -7 5 -4
10 3 6 8 10 11 10 2 0 4 -4 4 -10z m-33 -15 c0 -8 -4 -12 -9 -9 -5 3 -6 10 -3
15 9 13 12 11 12 -6z"/>
<path d="M4060 1581 c-6 -16 -27 -47 -46 -68 -39 -44 -41 -53 -15 -60 11 -3
22 -11 25 -19 8 -20 21 -17 35 9 l11 22 -6 -24 c-4 -14 -2 -21 3 -18 5 4 10 0
10 -8 0 -11 -4 -12 -14 -4 -9 8 -13 8 -13 0 0 -6 5 -11 10 -11 6 0 20 -11 32
-25 12 -14 26 -25 32 -25 6 0 17 -9 24 -20 7 -11 19 -20 28 -20 8 0 12 -4 9
-10 -3 -5 4 -10 15 -10 13 0 24 -8 27 -20 5 -18 8 -17 34 13 15 17 29 35 29
39 0 4 12 20 26 35 13 15 22 33 19 40 -2 8 -1 12 3 10 7 -5 32 17 33 29 1 12
-31 25 -43 18 -6 -4 -8 -3 -5 3 10 16 -37 42 -64 37 -13 -2 -18 -1 -11 2 18 8
-67 66 -86 59 -7 -3 -11 -1 -8 4 4 6 -62 51 -77 51 -2 0 -10 -13 -17 -29z m67
-15 c-3 -6 -11 -9 -18 -7 -8 2 -23 3 -34 3 -15 -1 -16 1 -6 8 8 4 21 6 29 2
10 -3 13 -1 8 6 -5 8 -2 10 9 6 9 -4 14 -12 12 -18z m-47 -62 c0 -7 -4 -15 -9
-18 -5 -4 -7 3 -4 14 3 11 0 20 -6 20 -6 0 -10 -3 -10 -7 1 -5 1 -15 0 -23 -1
-13 -3 -13 -10 -1 -13 21 9 54 26 39 7 -6 13 -16 13 -24z m125 -14 c3 -5 1
-10 -4 -10 -6 0 -11 5 -11 10 0 6 2 10 4 10 3 0 8 -4 11 -10z m-190 -10 c-3
-5 -1 -10 6 -10 7 0 10 -3 6 -6 -9 -9 -28 6 -22 17 4 5 8 9 11 9 3 0 2 -4 -1
-10z m335 -50 c0 -5 -2 -10 -4 -10 -3 0 -8 5 -11 10 -3 6 -1 10 4 10 6 0 11
-4 11 -10z m-200 -61 c0 -12 -27 -12 -35 1 -4 6 1 7 11 3 13 -5 15 -3 9 7 -5
9 -4 11 3 6 7 -4 12 -11 12 -17z m117 -31 c-3 -8 -6 -5 -6 6 -1 11 2 17 5 13
3 -3 4 -12 1 -19z m-3 -33 c-4 -8 -11 -15 -16 -15 -6 0 -5 6 2 15 7 8 14 15
16 15 2 0 1 -7 -2 -15z"/>
<path d="M1166 1344 c-14 -10 -16 -14 -5 -14 12 0 12 -2 -1 -9 -8 -6 -17 -8
-21 -5 -8 5 -24 -15 -24 -31 0 -5 -9 -10 -20 -10 -23 0 -27 -26 -6 -33 9 -3
11 0 6 8 -5 9 -4 11 4 6 17 -11 5 -23 -25 -23 -18 0 -22 2 -13 8 10 6 10 9 2
9 -7 0 -16 -6 -20 -14 -4 -8 -11 -14 -14 -13 -3 1 -27 -17 -54 -41 -46 -40
-47 -43 -29 -56 10 -8 23 -12 28 -8 5 3 7 -2 4 -10 -8 -20 105 -134 122 -123
6 4 24 24 39 46 43 59 103 130 134 157 15 14 27 32 27 41 0 9 -26 42 -58 73
-52 52 -59 56 -76 42z m66 -59 c3 -13 2 -22 -2 -20 -4 3 -10 16 -12 30 -3 13
-2 22 2 20 4 -3 10 -16 12 -30z m3 -40 c11 -4 29 -7 40 -6 18 1 17 0 -4 -12
-13 -8 -20 -16 -15 -18 5 -2 -1 -14 -13 -26 -13 -12 -23 -18 -23 -14 0 5 7 14
15 21 13 11 13 14 -2 26 -17 13 -17 14 1 7 13 -4 17 -3 12 5 -9 16 -33 15 -39
0 -2 -7 -4 0 -4 16 0 15 2 24 6 19 3 -5 15 -13 26 -18z m-24 -62 c-12 -20 -14
-14 -5 12 4 9 9 14 11 11 3 -2 0 -13 -6 -23z m-175 -18 c1 -7 -6 -21 -16 -30
-18 -16 -18 -16 -13 4 4 15 1 20 -8 18 -8 -2 -11 -2 -6 0 4 3 4 10 0 16 -4 7
1 6 10 -2 15 -12 17 -11 17 4 0 20 13 12 16 -10z m179 -14 c3 -5 2 -12 -3 -15
-5 -3 -9 1 -9 9 0 17 3 19 12 6z m-170 -89 c-3 -3 -11 0 -18 7 -9 10 -8 11 6
5 10 -3 15 -9 12 -12z m80 -2 c-3 -5 -12 -10 -18 -10 -7 0 -6 4 3 10 19 12 23
12 15 0z m10 -20 c-10 -11 -21 -18 -23 -15 -3 3 3 12 14 20 27 20 30 18 9 -5z
m-55 -30 c0 -5 -2 -10 -4 -10 -3 0 -8 5 -11 10 -3 6 -1 10 4 10 6 0 11 -4 11
-10z"/>
<path d="M3889 1358 c-1 -5 -2 -12 -3 -17 0 -5 -5 -13 -10 -18 -5 -5 -6 -3 -2
5 4 6 5 12 3 12 -8 0 -107 -99 -107 -107 0 -4 26 -35 56 -68 31 -33 50 -51 43
-40 -13 18 -13 19 4 6 10 -8 16 -19 14 -25 -2 -6 18 -37 46 -69 39 -46 52 -55
63 -46 15 12 9 33 -7 23 -5 -3 -9 -2 -8 3 3 13 -12 43 -23 43 -5 0 -6 -6 -2
-12 5 -9 2 -9 -9 1 -21 17 -22 16 7 19 17 1 27 -5 31 -17 11 -37 32 -44 55
-21 11 11 18 26 14 32 -4 7 -3 8 5 4 7 -5 27 7 51 30 30 30 37 41 28 52 -6 7
-17 11 -25 8 -8 -3 -12 -2 -9 2 8 13 -32 53 -119 123 -44 35 -83 69 -87 74 -4
6 -8 7 -9 3z m-55 -119 c-2 -4 -13 -5 -24 -2 -19 5 -19 6 -3 18 13 10 20 10
25 2 4 -6 5 -14 2 -18z m0 -35 c3 -8 1 -14 -4 -14 -6 0 -10 5 -10 11 0 5 -4 8
-9 4 -5 -3 -12 -2 -15 3 -2 4 4 8 14 9 10 1 21 -5 24 -13z m221 -44 c3 -5 -3
-10 -15 -10 -12 0 -18 5 -15 10 3 6 10 10 15 10 5 0 12 -4 15 -10z m60 -41
c-4 -5 -14 -9 -23 -8 -14 0 -13 2 3 9 17 7 17 9 3 9 -10 1 -18 6 -18 11 0 7 7
7 20 0 11 -6 18 -15 15 -21z m-199 -14 c1 -19 -2 -32 -7 -30 -8 6 -5 65 4 65
1 0 3 -16 3 -35z m113 -61 c-6 -7 -15 -11 -21 -8 -5 3 -4 12 3 20 6 7 15 11
21 8 5 -3 4 -12 -3 -20z"/>
<path d="M772 1127 c-12 -13 -22 -27 -22 -33 0 -5 8 0 16 11 16 19 16 19 9 -5
-7 -21 -6 -23 7 -13 12 10 15 10 15 -1 0 -14 -16 -14 -48 -1 -12 4 -34 -14
-80 -65 -35 -39 -64 -75 -64 -80 0 -4 -4 -12 -9 -17 -5 -5 -6 -3 -2 5 4 6 3
12 -3 12 -12 0 -37 -41 -33 -53 1 -5 -1 -6 -6 -3 -4 2 -70 -59 -147 -136 -129
-131 -138 -141 -120 -154 10 -8 14 -14 9 -14 -6 0 -15 5 -21 11 -13 13 -136
-109 -128 -128 2 -7 -6 -18 -18 -23 -21 -11 -21 -11 -3 4 11 9 15 16 10 16 -5
0 -38 -28 -72 -63 l-62 -63 0 -167 0 -167 143 0 c137 0 144 1 165 23 12 13 19
27 15 32 -5 4 -3 5 3 2 10 -6 83 60 84 76 0 4 3 7 8 8 11 1 32 20 32 30 0 5
-6 6 -14 3 -8 -3 -17 -1 -20 4 -3 5 7 8 22 6 30 -3 55 13 45 29 -3 5 -2 7 4 4
5 -3 83 71 174 165 90 94 181 187 201 206 21 19 35 39 31 45 -3 6 -2 7 4 4 15
-9 77 59 70 77 -3 8 0 20 8 26 11 10 13 8 10 -8 -2 -14 9 -8 43 25 34 34 42
47 32 53 -16 10 -22 38 -10 45 4 3 14 -3 21 -12 8 -10 9 -14 2 -10 -6 4 -14 3
-17 -2 -9 -15 22 -21 34 -7 8 11 0 20 -37 44 -27 17 -64 46 -82 64 -19 18 -31
27 -27 20 4 -7 4 -12 -1 -11 -25 4 -35 -2 -25 -14 8 -10 6 -13 -8 -14 -13 -1
-17 3 -13 14 5 12 3 14 -8 8 -8 -5 -11 -5 -6 1 5 5 13 10 18 10 5 1 14 2 19 3
18 2 10 22 -22 55 -18 18 -38 41 -45 52 -6 10 -16 18 -23 16 -6 -1 -9 1 -6 6
3 5 -3 18 -13 28 -9 11 -16 25 -13 32 6 18 -2 15 -26 -11z m-59 -89 c-4 -7 -8
-19 -9 -26 -3 -18 -14 -29 -14 -14 0 6 -8 9 -17 6 -10 -4 -5 5 12 20 34 29 40
31 28 14z m142 -27 c3 -5 1 -12 -5 -16 -5 -3 -10 1 -10 9 0 18 6 21 15 7z m48
-34 c3 -8 -1 -14 -8 -14 -7 0 -11 6 -8 14 3 7 6 13 8 13 2 0 5 -6 8 -13z m80
-102 c-3 -9 -8 -14 -10 -11 -3 3 -2 9 2 15 9 16 15 13 8 -4z m-512 -112 c13
-16 12 -17 -3 -5 -11 9 -18 10 -23 2 -3 -5 -1 -10 6 -10 7 0 10 -3 6 -6 -3 -3
-11 -3 -17 1 -8 5 -8 11 1 21 14 18 14 18 30 -3z m-76 -82 c-3 -6 -11 -11 -16
-11 -5 0 -4 6 3 14 14 16 24 13 13 -3z m505 -21 c0 -5 -5 -10 -11 -10 -5 0 -7
5 -4 10 3 6 8 10 11 10 2 0 4 -4 4 -10z m-82 -105 c-3 -3 -9 2 -12 12 -6 14
-5 15 5 6 7 -7 10 -15 7 -18z m-563 -15 c-3 -5 -12 -7 -20 -3 -21 7 -19 13 6
13 11 0 18 -4 14 -10z m425 -119 c0 -17 -21 -24 -33 -12 -9 9 -7 10 7 5 13 -5
17 -4 12 4 -4 7 -2 12 3 12 6 0 11 -4 11 -9z m-653 -93 c-3 -8 -6 -5 -6 6 -1
11 2 17 5 13 3 -3 4 -12 1 -19z m558 1 c-4 -5 -12 -9 -18 -8 -9 0 -8 2 1 6 6
2 9 10 6 15 -4 7 -2 8 5 4 6 -4 9 -12 6 -17z m-76 -70 c-22 -13 -31 -11 -17 5
7 8 17 12 22 9 4 -3 2 -9 -5 -14z m-156 -169 c3 6 4 5 3 -2 -4 -19 -23 -20
-30 -2 -5 14 -4 15 8 5 10 -8 16 -9 19 -1z"/>
<path d="M1375 1088 c-36 -42 -45 -58 -40 -78 4 -19 3 -22 -5 -10 -9 13 -17 8
-50 -28 -22 -24 -40 -53 -40 -65 0 -13 -3 -17 -8 -11 -5 9 -11 8 -20 -2 -11
-12 -9 -14 8 -14 12 0 19 -4 15 -9 -9 -16 15 -23 32 -9 14 11 15 10 9 -8 -5
-17 2 -26 34 -48 22 -15 46 -24 52 -20 7 4 8 3 4 -4 -3 -6 2 -16 13 -21 15 -9
22 -6 35 14 9 13 16 28 16 32 0 5 11 25 25 44 13 20 21 39 18 43 -4 3 -1 6 5
6 16 0 44 58 36 72 -4 6 -3 8 4 4 9 -6 24 21 27 49 0 6 6 9 13 7 18 -3 15 15
-4 22 -22 9 -24 8 -18 -9 4 -8 2 -15 -4 -15 -6 0 -9 8 -7 18 3 19 -12 42 -27
42 -5 0 -7 -4 -4 -8 3 -5 -1 -9 -8 -9 -8 0 -12 6 -9 14 5 12 -32 52 -49 53 -3
0 -27 -24 -53 -52z m75 26 c0 -8 -19 -13 -24 -6 -3 5 1 9 9 9 8 0 15 -2 15 -3z
m-47 -29 c-3 -9 -8 -14 -10 -11 -3 3 -2 9 2 15 9 16 15 13 8 -4z m97 -139 c0
-3 -4 -8 -10 -11 -5 -3 -10 -1 -10 4 0 6 5 11 10 11 6 0 10 -2 10 -4z m-220
-10 c0 -3 -4 -8 -10 -11 -5 -3 -10 -1 -10 4 0 6 5 11 10 11 6 0 10 -2 10 -4z
m50 -116 c0 -5 -5 -10 -11 -10 -5 0 -7 5 -4 10 3 6 8 10 11 10 2 0 4 -4 4 -10z
m85 -19 c-3 -6 -11 -11 -17 -11 -6 0 -6 6 2 15 14 17 26 13 15 -4z"/>
<path d="M3608 1112 c-18 -16 -48 -37 -65 -47 -18 -11 -33 -22 -33 -26 0 -16
43 -58 53 -52 7 4 5 -2 -3 -12 -9 -11 -10 -16 -2 -11 7 4 12 2 12 -4 0 -6 5
-8 13 -4 9 6 9 5 0 -7 -10 -12 -8 -21 6 -43 17 -25 20 -26 24 -10 4 14 6 12 5
-6 0 -40 3 -46 13 -25 7 15 8 12 3 -13 -4 -24 -2 -34 10 -38 9 -3 14 -10 11
-14 -3 -4 3 -17 13 -29 l17 -21 75 51 c41 28 83 59 94 69 18 18 18 19 -5 42
-14 13 -40 44 -59 68 -19 25 -42 52 -50 61 -8 9 -31 35 -50 58 -19 22 -38 41
-42 41 -4 0 -22 -13 -40 -28z m52 -16 c0 -3 -4 -8 -10 -11 -5 -3 -10 -1 -10 4
0 6 5 11 10 11 6 0 10 -2 10 -4z m30 -10 c0 -2 -7 -7 -16 -10 -8 -3 -12 -2 -9
4 6 10 25 14 25 6z m24 -42 c3 -8 2 -12 -4 -9 -6 3 -10 10 -10 16 0 14 7 11
14 -7z m-22 -40 c-9 -16 -10 -14 -9 8 1 15 6 23 11 18 4 -4 4 -16 -2 -26z m77
-17 c0 -9 -2 -9 -5 0 -3 7 -13 9 -22 6 -14 -4 -14 -3 -2 5 16 12 30 7 29 -11z
m-129 3 c0 -5 -4 -10 -10 -10 -5 0 -10 5 -10 10 0 6 5 10 10 10 6 0 10 -4 10
-10z m160 -77 c0 -7 -5 -13 -11 -13 -5 0 -7 5 -3 12 5 7 2 9 -7 6 -9 -4 -15 1
-15 12 0 14 4 15 18 6 10 -6 18 -16 18 -23z m-26 -81 c3 -5 -1 -9 -9 -9 -8 0
-12 4 -9 9 3 4 7 8 9 8 2 0 6 -4 9 -8z m-54 -23 c0 -5 -6 -9 -12 -9 -10 0 -10
-2 0 -9 11 -7 11 -9 0 -13 -10 -4 -14 2 -13 22 0 18 4 26 12 23 7 -3 13 -9 13
-14z"/>
<path d="M1685 960 c3 -5 10 -10 16 -10 5 0 9 5 9 10 0 6 -7 10 -16 10 -8 0
-12 -4 -9 -10z"/>
<path d="M3343 952 c-18 -9 -32 -21 -32 -25 1 -5 -3 -12 -7 -15 -4 -4 -4 -1 1
6 5 10 2 13 -11 10 -11 -2 -19 -8 -19 -15 0 -6 -4 -15 -9 -20 -5 -5 -6 -3 -2
5 5 8 0 12 -13 12 -24 0 -27 -17 -7 -45 14 -20 16 -26 16 -46 0 -5 3 -8 8 -5
4 2 8 -10 9 -27 0 -17 9 -37 19 -44 22 -16 38 -17 28 -2 -4 8 0 8 15 0 24 -13
28 -23 6 -15 -20 8 -19 -6 3 -23 15 -13 15 -13 -5 -3 -12 5 -25 15 -28 20 -14
22 -23 8 -14 -20 10 -26 24 -35 51 -31 8 1 4 -26 -6 -36 -4 -4 -6 -2 -4 6 2 7
-2 15 -9 18 -8 3 -11 -3 -8 -18 5 -25 24 -41 39 -32 5 3 6 1 2 -6 -4 -6 -12
-9 -17 -6 -5 4 -9 1 -9 -4 0 -15 16 -14 32 2 7 8 19 12 26 9 6 -2 15 3 18 12
3 9 10 14 14 11 11 -7 115 39 124 54 4 6 1 14 -7 17 -7 2 -14 11 -14 18 0 21
-76 146 -85 140 -5 -3 -7 -2 -6 3 1 4 -3 22 -9 40 -9 23 -17 31 -31 28 -11 -2
-19 2 -19 11 0 10 4 11 14 3 16 -14 17 3 1 19 -15 15 -16 15 -55 -6z m23 -14
c4 -7 3 -8 -4 -4 -7 4 -12 2 -12 -3 0 -6 5 -11 12 -11 6 0 8 -3 5 -6 -4 -4
-14 -1 -22 6 -13 11 -13 15 -3 21 17 11 16 11 24 -3z m104 -179 c0 -3 -6 -6
-12 -6 -7 0 -14 14 -15 31 l-2 31 14 -25 c8 -14 14 -28 15 -31z m29 8 c8 -10
7 -14 -4 -14 -8 0 -15 6 -15 14 0 7 2 13 4 13 2 0 9 -6 15 -13z m-104 -107
c-3 -5 -12 -10 -18 -10 -7 0 -6 4 3 10 19 12 23 12 15 0z m25 -14 c0 -2 -7 -9
-15 -16 -13 -11 -14 -10 -9 4 5 14 24 23 24 12z"/>
<path d="M1708 942 c-10 -12 -10 -14 0 -8 7 4 12 2 12 -4 0 -7 -7 -9 -16 -6
-9 3 -18 6 -20 6 -3 0 -2 5 1 10 3 6 2 10 -4 10 -12 0 -45 -59 -38 -67 3 -2
-5 -15 -18 -29 -27 -29 -89 -144 -78 -144 4 0 0 -5 -10 -11 -9 -6 -15 -15 -11
-20 4 -6 11 -6 20 2 12 9 13 9 9 -3 -4 -11 6 -21 32 -33 21 -10 60 -28 87 -41
28 -13 51 -24 52 -24 4 0 35 85 38 102 1 9 7 22 13 29 10 14 26 72 23 85 -1 4
2 10 7 13 5 3 16 25 25 49 l17 42 -36 15 c-19 8 -40 12 -46 8 -5 -3 -8 -2 -4
3 3 5 -5 14 -19 21 -19 9 -26 8 -36 -5z m-63 -102 c3 -5 1 -10 -4 -10 -6 0
-11 5 -11 10 0 6 2 10 4 10 3 0 8 -4 11 -10z m140 -79 c-6 -5 -25 10 -25 20 0
5 6 4 14 -3 8 -7 12 -15 11 -17z m-185 -16 c0 -5 -5 -3 -10 5 -5 8 -10 20 -10
25 0 6 5 3 10 -5 5 -8 10 -19 10 -25z m-9 -54 c-9 -6 -11 -16 -7 -27 6 -15 4
-16 -5 -7 -14 14 -5 43 13 43 10 0 9 -3 -1 -9z m59 -36 c0 -12 -19 -12 -23 0
-4 9 -1 12 9 8 7 -3 14 -7 14 -8z m25 -14 c1 -10 -5 -18 -12 -18 -15 0 -17 13
-3 22 6 4 7 12 4 18 -4 7 -3 9 1 4 5 -4 9 -16 10 -26z"/>
<path d="M1983 830 c3 -11 0 -23 -7 -28 -6 -4 -17 -20 -24 -36 -11 -24 -11
-31 0 -37 10 -7 9 -9 -4 -9 -10 0 -18 -5 -18 -11 0 -6 8 -9 18 -7 11 2 18 14
19 33 0 17 2 35 2 41 2 18 27 12 27 -7 0 -10 -4 -16 -7 -13 -4 2 -9 -10 -11
-28 -2 -27 -8 -34 -30 -36 -25 -3 -31 -13 -43 -72 0 -3 -9 -19 -18 -37 -21
-40 -22 -54 0 -46 11 4 14 3 9 -5 -8 -13 68 -36 91 -28 8 3 12 2 9 -2 -6 -10
84 -35 92 -27 4 3 7 16 9 28 1 12 7 42 13 67 6 25 9 55 7 67 -2 12 -1 20 3 18
8 -5 13 18 25 106 7 44 5 47 -19 51 -14 3 -30 0 -37 -6 -9 -8 -10 -8 -6 0 4 8
-12 18 -42 28 -63 20 -64 20 -58 -4z m137 -49 c0 -5 -9 -7 -20 -4 -11 3 -20 7
-20 9 0 2 9 4 20 4 11 0 20 -4 20 -9z m-16 -20 c3 -5 0 -11 -7 -14 -8 -3 -14
1 -14 9 0 16 13 19 21 5z m-109 -81 c-3 -5 -11 -10 -16 -10 -6 0 -7 5 -4 10 3
6 11 10 16 10 6 0 7 -4 4 -10z m99 -76 c3 -8 2 -12 -4 -9 -6 3 -10 10 -10 16
0 14 7 11 14 -7z m-177 -24 c-2 -11 -6 -22 -9 -26 -4 -3 -5 2 -3 13 2 10 4 21
4 26 1 4 3 7 6 7 3 0 4 -9 2 -20z"/>
<path d="M3015 829 c-33 -10 -68 -19 -79 -19 -14 0 -17 -5 -12 -25 4 -14 9
-45 13 -70 3 -26 10 -42 16 -38 6 3 7 1 3 -5 -9 -15 25 -202 37 -202 5 0 7 6
4 13 -3 8 1 14 8 14 7 0 11 -6 8 -13 -3 -8 23 -4 82 11 126 34 117 27 97 82
-9 26 -19 50 -22 53 -3 3 -7 14 -8 25 -2 11 -7 22 -10 25 -4 3 -7 11 -8 18 -3
37 -5 43 -11 39 -5 -3 -9 5 -10 16 -2 35 -27 97 -38 96 -5 0 -37 -9 -70 -20z
m75 1 c0 -5 -2 -10 -4 -10 -3 0 -8 5 -11 10 -3 6 -1 10 4 10 6 0 11 -4 11 -10z
m60 -184 c0 -2 -7 -6 -15 -10 -8 -3 -15 -1 -15 4 0 6 7 10 15 10 8 0 15 -2 15
-4z m-5 -26 c-3 -5 -1 -10 6 -10 7 0 10 -3 6 -6 -3 -4 -14 -3 -24 0 -15 6 -15
8 -3 16 19 12 23 12 15 0z m-90 -120 c-3 -5 -12 -10 -18 -10 -7 0 -6 4 3 10
19 12 23 12 15 0z"/>
<path d="M2289 776 c-1 -4 -2 -9 -3 -13 -1 -5 -6 -32 -10 -62 -6 -41 -5 -55 5
-62 11 -7 10 -9 -3 -9 -13 0 -18 -8 -18 -27 -1 -16 -7 -55 -15 -88 -8 -33 -15
-63 -15 -67 0 -3 30 -9 68 -13 37 -3 90 -8 117 -11 l50 -5 0 173 c0 166 -1
173 -20 174 -11 1 -50 5 -87 8 -38 4 -69 5 -69 2z m13 -53 c-3 -16 -7 -22 -10
-15 -4 13 4 42 11 42 2 0 2 -12 -1 -27z m148 -22 c0 -5 -9 -7 -20 -4 -11 3
-20 7 -20 9 0 2 9 4 20 4 11 0 20 -4 20 -9z m-157 -36 c-7 -21 -12 -19 -10 4
0 11 5 18 9 15 4 -3 5 -11 1 -19z m67 9 c0 -8 -5 -12 -10 -9 -6 4 -8 11 -5 16
9 14 15 11 15 -7z m-65 -64 c3 -5 1 -10 -4 -10 -6 0 -11 5 -11 10 0 6 2 10 4
10 3 0 8 -4 11 -10z"/>
<path d="M2667 773 l-57 -4 2 -172 3 -172 40 2 c22 1 74 5 116 8 75 6 76 7 71
32 -4 19 -7 22 -14 11 -7 -9 -8 -8 -3 7 7 23 -4 127 -14 121 -4 -3 -7 7 -7 22
0 15 -3 55 -8 90 -9 70 7 63 -129 55z m94 -46 c-10 -9 -11 -8 -5 6 3 10 9 15
12 12 3 -3 0 -11 -7 -18z m-8 -274 c-7 -2 -19 -2 -25 0 -7 3 -2 5 12 5 14 0
19 -2 13 -5z"/>
</g>
</svg>
